<svg width="66" height="53" viewBox="0 0 66 53" fill="none" xmlns="http://www.w3.org/2000/svg">
<path d="M8.125 52.864C5.885 52.864 4.221 52.544 3.133 51.904C2.045 51.2 1.341 50.432 1.021 49.6C0.701 48.768 0.541 48.128 0.541 47.68C0.541 46.848 0.829 46.144 1.405 45.568C1.981 44.992 2.781 44.704 3.805 44.704C4.317 44.704 4.797 44.864 5.245 45.184C5.629 45.44 5.821 45.856 5.821 46.432C5.821 47.072 5.597 47.552 5.149 47.872C4.701 48.128 4.189 48.256 3.613 48.256C3.165 48.256 2.781 48.224 2.461 48.16C2.141 48.032 1.981 47.968 1.981 47.968C1.981 48.8 2.397 49.664 3.229 50.56C4.061 51.392 5.469 51.808 7.453 51.808C10.397 51.808 13.085 50.976 15.517 49.312C17.949 47.584 20.253 45.376 22.429 42.688C24.605 40 26.749 37.12 28.861 34.048C30.973 30.976 33.181 28.032 35.485 25.216C38.557 21.44 41.693 17.92 44.893 14.656C48.093 11.328 51.357 8.48 54.685 6.112C58.013 3.68 61.405 1.984 64.861 1.024C65.373 0.895996 65.661 0.991997 65.725 1.312C65.789 1.632 65.565 1.856 65.053 1.984C62.301 2.752 59.613 4.224 56.989 6.4C54.365 8.576 51.773 11.232 49.213 14.368C46.717 17.44 44.189 20.736 41.629 24.256C39.133 27.712 36.573 31.136 33.949 34.528C31.389 37.92 28.733 40.992 25.981 43.744C23.229 46.496 20.381 48.704 17.437 50.368C14.493 52.032 11.389 52.864 8.125 52.864ZM42.109 31.84C38.333 31.84 35.389 31.328 33.277 30.304C31.165 29.28 30.109 27.904 30.109 26.176C30.109 25.28 30.397 24.576 30.973 24.064C31.549 23.488 32.189 23.104 32.893 22.912C33.661 22.656 34.269 22.528 34.717 22.528C35.101 22.528 35.293 22.656 35.293 22.912C35.293 23.104 35.133 23.232 34.813 23.296C33.981 23.424 33.213 23.84 32.509 24.544C31.869 25.184 31.549 25.792 31.549 26.368C31.549 27.2 32.349 28.16 33.949 29.248C35.613 30.336 38.173 30.88 41.629 30.88C43.357 30.88 45.341 30.496 47.581 29.728C49.821 28.896 51.965 27.68 54.013 26.08C56.125 24.416 57.853 22.4 59.197 20.032C60.541 17.6 61.213 14.784 61.213 11.584C61.213 8 59.613 5.472 56.413 4C53.277 2.464 48.957 1.696 43.453 1.696C38.909 1.696 34.589 2.368 30.493 3.712C26.397 5.056 22.749 6.784 19.549 8.896C16.413 11.008 13.917 13.28 12.061 15.712C10.269 18.144 9.373 20.448 9.373 22.624C9.373 24.8 9.885 26.368 10.909 27.328C11.997 28.288 13.277 28.768 14.749 28.768C16.541 28.768 18.333 28.224 20.125 27.136C21.981 25.984 23.709 24.544 25.309 22.816C26.909 21.024 28.349 19.168 29.629 17.248C30.909 15.264 31.933 13.44 32.701 11.776C33.469 10.112 33.885 8.832 33.949 7.936C34.013 7.296 34.141 6.976 34.333 6.976C34.589 6.976 34.749 7.2 34.813 7.648C35.005 9.632 34.653 11.904 33.757 14.464C32.925 16.96 31.613 19.392 29.821 21.76C28.093 24.064 25.949 25.984 23.389 27.52C20.829 29.056 17.981 29.824 14.845 29.824C12.861 29.824 11.261 29.216 10.045 28C8.829 26.72 8.221 24.896 8.221 22.528C8.221 20.224 9.149 17.824 11.005 15.328C12.861 12.768 15.421 10.4 18.685 8.224C21.949 6.048 25.693 4.288 29.917 2.944C34.205 1.536 38.717 0.831995 43.453 0.831995C49.021 0.831995 53.405 1.472 56.605 2.752C59.869 4.032 62.173 5.728 63.517 7.84C64.925 9.888 65.629 12.064 65.629 14.368C65.629 16.16 65.021 18.08 63.805 20.128C62.653 22.176 61.021 24.096 58.909 25.888C56.797 27.616 54.301 29.056 51.421 30.208C48.605 31.296 45.501 31.84 42.109 31.84Z" fill="white"/>
</svg>
