<svg width="169" height="83" viewBox="0 0 169 83" fill="none" xmlns="http://www.w3.org/2000/svg">
<line x1="8" y1="76.5" x2="41" y2="76.5" stroke="#020100"/>
<path d="M8.30312 52.864C6.06312 52.864 4.39912 52.544 3.31112 51.904C2.22312 51.2 1.51912 50.432 1.19912 49.6C0.879123 48.768 0.719123 48.128 0.719123 47.68C0.719123 46.848 1.00712 46.144 1.58312 45.568C2.15912 44.992 2.95912 44.704 3.98312 44.704C4.49512 44.704 4.97512 44.864 5.42312 45.184C5.80712 45.44 5.99912 45.856 5.99912 46.432C5.99912 47.072 5.77512 47.552 5.32712 47.872C4.87912 48.128 4.36712 48.256 3.79112 48.256C3.34312 48.256 2.95912 48.224 2.63912 48.16C2.31912 48.032 2.15912 47.968 2.15912 47.968C2.15912 48.8 2.57512 49.664 3.40712 50.56C4.23912 51.392 5.64712 51.808 7.63112 51.808C10.5751 51.808 13.2631 50.976 15.6951 49.312C18.1271 47.584 20.4311 45.376 22.6071 42.688C24.7831 40 26.9271 37.12 29.0391 34.048C31.1511 30.976 33.3591 28.032 35.6631 25.216C38.7351 21.44 41.8711 17.92 45.0711 14.656C48.2711 11.328 51.5351 8.48 54.8631 6.112C58.1911 3.68 61.5831 1.984 65.0391 1.024C65.5511 0.895996 65.8391 0.991997 65.9031 1.312C65.9671 1.632 65.7431 1.856 65.2311 1.984C62.4791 2.752 59.7911 4.224 57.1671 6.4C54.5431 8.576 51.9511 11.232 49.3911 14.368C46.8951 17.44 44.3671 20.736 41.8071 24.256C39.3111 27.712 36.7511 31.136 34.1271 34.528C31.5671 37.92 28.9111 40.992 26.1591 43.744C23.4071 46.496 20.5591 48.704 17.6151 50.368C14.6711 52.032 11.5671 52.864 8.30312 52.864ZM42.2871 31.84C38.5111 31.84 35.5671 31.328 33.4551 30.304C31.3431 29.28 30.2871 27.904 30.2871 26.176C30.2871 25.28 30.5751 24.576 31.1511 24.064C31.7271 23.488 32.3671 23.104 33.0711 22.912C33.8391 22.656 34.4471 22.528 34.8951 22.528C35.2791 22.528 35.4711 22.656 35.4711 22.912C35.4711 23.104 35.3111 23.232 34.9911 23.296C34.1591 23.424 33.3911 23.84 32.6871 24.544C32.0471 25.184 31.7271 25.792 31.7271 26.368C31.7271 27.2 32.5271 28.16 34.1271 29.248C35.7911 30.336 38.3511 30.88 41.8071 30.88C43.5351 30.88 45.5191 30.496 47.7591 29.728C49.9991 28.896 52.1431 27.68 54.1911 26.08C56.3031 24.416 58.0311 22.4 59.3751 20.032C60.7191 17.6 61.3911 14.784 61.3911 11.584C61.3911 8 59.7911 5.472 56.5911 4C53.4551 2.464 49.1351 1.696 43.6311 1.696C39.0871 1.696 34.7671 2.368 30.6711 3.712C26.5751 5.056 22.9271 6.784 19.7271 8.896C16.5911 11.008 14.0951 13.28 12.2391 15.712C10.4471 18.144 9.55112 20.448 9.55112 22.624C9.55112 24.8 10.0631 26.368 11.0871 27.328C12.1751 28.288 13.4551 28.768 14.9271 28.768C16.7191 28.768 18.5111 28.224 20.3031 27.136C22.1591 25.984 23.8871 24.544 25.4871 22.816C27.0871 21.024 28.5271 19.168 29.8071 17.248C31.0871 15.264 32.1111 13.44 32.8791 11.776C33.6471 10.112 34.0631 8.832 34.1271 7.936C34.1911 7.296 34.3191 6.976 34.5111 6.976C34.7671 6.976 34.9271 7.2 34.9911 7.648C35.1831 9.632 34.8311 11.904 33.9351 14.464C33.1031 16.96 31.7911 19.392 29.9991 21.76C28.2711 24.064 26.1271 25.984 23.5671 27.52C21.0071 29.056 18.1591 29.824 15.0231 29.824C13.0391 29.824 11.4391 29.216 10.2231 28C9.00712 26.72 8.39912 24.896 8.39912 22.528C8.39912 20.224 9.32712 17.824 11.1831 15.328C13.0391 12.768 15.5991 10.4 18.8631 8.224C22.1271 6.048 25.8711 4.288 30.0951 2.944C34.3831 1.536 38.8951 0.831995 43.6311 0.831995C49.1991 0.831995 53.5831 1.472 56.7831 2.752C60.0471 4.032 62.3511 5.728 63.6951 7.84C65.1031 9.888 65.8071 12.064 65.8071 14.368C65.8071 16.16 65.1991 18.08 63.9831 20.128C62.8311 22.176 61.1991 24.096 59.0871 25.888C56.9751 27.616 54.4791 29.056 51.5991 30.208C48.7831 31.296 45.6791 31.84 42.2871 31.84ZM74.1411 35.2C73.8851 35.712 73.5011 36.16 72.9891 36.544C72.5411 36.928 72.1891 37.184 71.9331 37.312C71.7411 37.376 71.8051 37.184 72.1251 36.736C73.2771 35.328 74.0131 34.016 74.3331 32.8C74.7171 31.584 74.7171 30.624 74.3331 29.92C74.0131 29.152 73.3731 28.768 72.4131 28.768C71.1331 28.768 69.6291 29.28 67.9011 30.304C66.1731 31.328 64.3811 32.672 62.5251 34.336C60.7331 36 59.0371 37.792 57.4371 39.712C55.9011 41.568 54.6531 43.392 53.6931 45.184C52.7331 46.912 52.2531 48.416 52.2531 49.696C52.2531 50.656 52.4451 51.264 52.8291 51.52C53.2131 51.776 53.5971 51.904 53.9811 51.904C55.4531 51.904 57.1491 51.232 59.0691 49.888C61.0531 48.48 63.0691 46.72 65.1171 44.608C67.1651 42.496 69.1171 40.352 70.9731 38.176C72.8291 35.936 74.4291 33.92 75.7731 32.128C77.1811 30.336 78.1411 29.12 78.6531 28.48C79.3571 28.736 80.1891 28.832 81.1491 28.768C82.1731 28.704 83.0371 28.64 83.7411 28.576C83.6131 28.768 82.9411 29.568 81.7251 30.976C80.5731 32.384 79.1651 34.08 77.5011 36.064C75.9011 37.984 74.2691 39.968 72.6051 42.016C71.0051 44.064 69.6611 45.856 68.5731 47.392C67.4851 48.928 66.9411 49.952 66.9411 50.464C66.9411 51.104 67.0691 51.52 67.3251 51.712C67.6451 51.84 68.1251 51.904 68.7651 51.904C69.5331 51.84 70.6531 51.488 72.1251 50.848C73.5971 50.144 75.4851 48.8 77.7891 46.816C80.0931 44.832 82.8771 41.888 86.1411 37.984C86.1411 37.984 86.2691 38.08 86.5251 38.272C86.8451 38.464 87.0051 38.56 87.0051 38.56C83.1651 43.04 79.6131 46.56 76.3491 49.12C73.0851 51.616 70.1091 52.864 67.4211 52.864C66.0131 52.864 65.0531 52.64 64.5411 52.192C64.0931 51.744 63.8691 51.104 63.8691 50.272C63.8691 49.632 64.1251 48.864 64.6371 47.968C65.2131 47.008 65.8531 46.08 66.5571 45.184C67.2611 44.288 67.8371 43.584 68.2851 43.072C68.2851 43.072 68.2211 43.04 68.0931 42.976C67.9651 42.912 67.9011 42.88 67.9011 42.88C66.4291 44.672 64.8611 46.336 63.1971 47.872C61.5331 49.408 59.8691 50.624 58.2051 51.52C56.6051 52.416 55.0371 52.864 53.5011 52.864C51.9011 52.864 50.7811 52.48 50.1411 51.712C49.5011 50.88 49.1811 49.632 49.1811 47.968C49.1811 46.368 49.6931 44.448 50.7171 42.208C51.7411 39.904 53.2131 37.664 55.1331 35.488C57.0531 33.248 59.3571 31.392 62.0451 29.92C64.7971 28.448 67.8691 27.712 71.2611 27.712C72.9251 27.712 74.0771 28.032 74.7171 28.672C75.3571 29.248 75.6451 29.952 75.5811 30.784C75.5171 31.616 75.3251 32.448 75.0051 33.28C74.6851 34.112 74.3971 34.752 74.1411 35.2ZM82.2794 39.424C82.0234 39.68 81.8314 39.712 81.7034 39.52C81.5754 39.264 81.5434 39.008 81.6074 38.752C82.6954 37.664 83.7514 36.384 84.7754 34.912C85.8634 33.44 86.7594 32.064 87.4634 30.784C88.2314 29.504 88.6794 28.64 88.8074 28.192C88.9354 28.192 89.1274 28.096 89.3834 27.904C89.7034 27.712 89.9914 27.648 90.2474 27.712C90.1834 28.16 90.0874 28.576 89.9594 28.96C89.8954 29.344 90.1194 29.696 90.6314 30.016C91.1434 30.336 92.1994 30.656 93.7994 30.976C95.3994 31.296 97.8314 31.648 101.095 32.032C101.415 32.096 101.639 32.224 101.767 32.416C101.959 32.544 101.863 32.768 101.479 33.088C100.263 34.048 98.9194 35.264 97.4474 36.736C95.9754 38.208 94.5354 39.776 93.1274 41.44C91.7834 43.04 90.6634 44.608 89.7674 46.144C88.9354 47.68 88.5194 48.96 88.5194 49.984C88.5194 51.136 89.0314 51.712 90.0554 51.712C91.3354 51.712 92.7754 51.2 94.3754 50.176C96.0394 49.152 97.7034 47.904 99.3674 46.432C101.031 44.896 102.567 43.36 103.975 41.824C105.447 40.224 106.663 38.912 107.623 37.888L108.391 38.464C107.495 39.36 106.343 40.608 104.935 42.208C103.527 43.808 101.927 45.44 100.135 47.104C98.4074 48.704 96.5514 50.08 94.5674 51.232C92.5834 52.32 90.5354 52.864 88.4234 52.864C87.2074 52.864 86.1194 52.576 85.1594 52C84.1994 51.488 83.7194 50.528 83.7194 49.12C83.7194 47.776 84.2954 46.368 85.4474 44.896C86.5994 43.424 88.0394 41.952 89.7674 40.48C91.4954 38.944 93.2874 37.504 95.1434 36.16C97.0634 34.752 98.7594 33.472 100.231 32.32L100.903 33.184C100.263 32.928 99.1434 32.704 97.5434 32.512C95.9434 32.256 94.2794 31.936 92.5514 31.552C90.8234 31.104 89.3194 30.528 88.0394 29.824C86.8234 29.12 86.2154 28.16 86.2154 26.944C86.2154 26.304 86.4714 25.536 86.9834 24.64C87.5594 23.68 88.3274 23.2 89.2874 23.2C90.1834 23.2 90.7914 23.392 91.1114 23.776C91.4314 24.096 91.5914 24.544 91.5914 25.12C91.5914 25.504 91.2714 26.304 90.6314 27.52C89.9914 28.672 89.1914 30.048 88.2314 31.648C87.2714 33.184 86.2474 34.656 85.1594 36.064C84.1354 37.472 83.1754 38.592 82.2794 39.424ZM101.738 52.864C100.842 52.864 99.8501 52.608 98.7621 52.096C97.6101 51.648 97.0341 50.88 97.0341 49.792C97.0341 48.448 97.6421 46.752 98.8581 44.704C100.074 42.656 101.578 40.544 103.37 38.368C105.098 36.192 106.794 34.144 108.458 32.224C110.122 30.304 111.37 28.8 112.202 27.712C112.906 27.776 113.738 27.808 114.698 27.808C115.722 27.808 116.618 27.776 117.386 27.712C116.49 28.8 115.306 30.176 113.834 31.84C112.426 33.504 110.922 35.296 109.322 37.216C107.786 39.072 106.282 40.896 104.81 42.688C103.402 44.48 102.25 46.08 101.354 47.488C100.458 48.896 100.01 49.92 100.01 50.56C100.01 51.008 100.202 51.328 100.586 51.52C100.97 51.712 101.61 51.808 102.506 51.808C104.042 51.808 105.738 51.232 107.594 50.08C109.514 48.864 111.37 47.424 113.162 45.76C114.954 44.096 116.554 42.528 117.962 41.056C119.37 39.52 120.362 38.4 120.938 37.696L121.706 38.368C121.13 39.008 120.138 40.128 118.73 41.728C117.386 43.264 115.754 44.896 113.834 46.624C111.978 48.352 109.994 49.824 107.882 51.04C105.834 52.256 103.786 52.864 101.738 52.864ZM120.938 20.416C120.17 20.416 119.594 20.192 119.21 19.744C118.826 19.232 118.634 18.656 118.634 18.016C118.634 17.312 119.018 16.576 119.786 15.808C120.554 15.04 121.354 14.656 122.186 14.656C123.082 14.656 123.722 14.912 124.106 15.424C124.49 15.872 124.682 16.32 124.682 16.768C124.682 17.728 124.298 18.592 123.53 19.36C122.762 20.064 121.898 20.416 120.938 20.416ZM113.902 54.208C111.662 54.208 109.966 53.792 108.814 52.96C107.662 52.128 107.086 51.008 107.086 49.6C107.086 48.576 107.438 47.68 108.142 46.912C108.782 46.08 109.55 45.44 110.446 44.992C111.342 44.48 112.046 44.224 112.558 44.224C113.262 44.224 113.742 44.384 113.998 44.704C114.19 44.96 114.286 45.248 114.286 45.568C114.286 46.08 113.998 46.496 113.422 46.816C112.782 47.136 112.27 47.296 111.886 47.296C111.438 47.296 111.054 47.168 110.734 46.912C110.35 46.592 110.158 46.432 110.158 46.432C109.838 46.496 109.39 46.848 108.814 47.488C108.238 48.128 107.95 48.832 107.95 49.6C107.95 50.368 108.366 51.104 109.198 51.808C110.03 52.512 111.374 52.864 113.23 52.864C115.15 52.864 116.974 52.224 118.702 50.944C120.494 49.664 121.966 48.032 123.118 46.048C124.27 44.064 124.846 42.048 124.846 40C124.846 39.296 124.846 38.368 124.846 37.216C124.846 36 124.846 35.008 124.846 34.24C124.846 33.28 125.006 32.192 125.326 30.976C125.646 29.696 125.998 28.512 126.382 27.424C126.83 26.336 127.182 25.664 127.438 25.408C127.95 24.96 128.334 24.832 128.59 25.024C128.846 25.216 128.91 25.408 128.782 25.6C128.718 25.664 128.302 26.176 127.534 27.136C126.766 28.032 125.806 29.152 124.654 30.496C123.502 31.84 122.35 33.184 121.198 34.528C120.046 35.872 119.022 37.056 118.126 38.08C117.294 39.104 116.814 39.712 116.686 39.904C116.366 40.352 116.078 40.448 115.822 40.192C115.566 39.936 115.63 39.616 116.014 39.232C116.718 38.336 117.582 37.28 118.606 36.064C119.694 34.784 120.782 33.536 121.87 32.32C122.958 31.104 123.886 30.08 124.654 29.248C125.486 28.352 125.934 27.84 125.998 27.712C126.19 27.456 126.35 27.008 126.478 26.368C126.67 25.728 126.894 25.12 127.15 24.544C127.47 23.968 127.854 23.68 128.302 23.68C129.39 23.68 129.934 24.064 129.934 24.832C129.934 25.408 129.486 26.112 128.59 26.944C127.758 27.776 127.278 28.448 127.15 28.96C126.958 29.728 126.958 30.816 127.15 32.224C127.406 33.568 127.662 35.104 127.918 36.832C128.238 38.56 128.398 40.384 128.398 42.304C128.398 44.864 127.886 46.944 126.862 48.544C125.838 50.08 124.558 51.264 123.022 52.096C121.486 52.928 119.886 53.472 118.222 53.728C116.622 54.048 115.182 54.208 113.902 54.208ZM128.686 47.584C127.022 47.584 125.934 47.264 125.422 46.624C124.974 45.984 124.814 45.248 124.942 44.416C125.134 43.52 125.358 42.72 125.614 42.016L126.574 42.112C126.382 42.752 126.19 43.424 125.998 44.128C125.87 44.832 125.966 45.44 126.286 45.952C126.606 46.464 127.438 46.72 128.782 46.72C129.742 46.72 130.83 46.272 132.046 45.376C133.262 44.48 134.446 43.392 135.598 42.112C136.814 40.832 137.838 39.584 138.67 38.368L139.534 39.04C138.702 40.064 137.678 41.248 136.462 42.592C135.31 43.936 134.062 45.12 132.718 46.144C131.374 47.104 130.03 47.584 128.686 47.584ZM155.719 35.2C155.463 35.712 155.079 36.16 154.567 36.544C154.119 36.928 153.767 37.184 153.511 37.312C153.319 37.376 153.383 37.184 153.703 36.736C154.855 35.328 155.591 34.016 155.911 32.8C156.295 31.584 156.295 30.624 155.911 29.92C155.591 29.152 154.951 28.768 153.991 28.768C152.711 28.768 151.207 29.28 149.479 30.304C147.751 31.328 145.959 32.672 144.103 34.336C142.311 36 140.615 37.792 139.015 39.712C137.479 41.568 136.231 43.392 135.271 45.184C134.311 46.912 133.831 48.416 133.831 49.696C133.831 50.656 134.023 51.264 134.407 51.52C134.791 51.776 135.175 51.904 135.559 51.904C137.031 51.904 138.727 51.232 140.647 49.888C142.631 48.48 144.647 46.72 146.695 44.608C148.743 42.496 150.695 40.352 152.551 38.176C154.407 35.936 156.007 33.92 157.351 32.128C158.759 30.336 159.719 29.12 160.231 28.48C160.935 28.736 161.767 28.832 162.727 28.768C163.751 28.704 164.615 28.64 165.319 28.576C165.191 28.768 164.519 29.568 163.303 30.976C162.151 32.384 160.743 34.08 159.079 36.064C157.479 37.984 155.847 39.968 154.183 42.016C152.583 44.064 151.239 45.856 150.151 47.392C149.063 48.928 148.519 49.952 148.519 50.464C148.519 51.104 148.647 51.52 148.903 51.712C149.223 51.84 149.703 51.904 150.343 51.904C151.111 51.84 152.231 51.488 153.703 50.848C155.175 50.144 157.063 48.8 159.367 46.816C161.671 44.832 164.455 41.888 167.719 37.984C167.719 37.984 167.847 38.08 168.103 38.272C168.423 38.464 168.583 38.56 168.583 38.56C164.743 43.04 161.191 46.56 157.927 49.12C154.663 51.616 151.687 52.864 148.999 52.864C147.591 52.864 146.631 52.64 146.119 52.192C145.671 51.744 145.447 51.104 145.447 50.272C145.447 49.632 145.703 48.864 146.215 47.968C146.791 47.008 147.431 46.08 148.135 45.184C148.839 44.288 149.415 43.584 149.863 43.072C149.863 43.072 149.799 43.04 149.671 42.976C149.543 42.912 149.479 42.88 149.479 42.88C148.007 44.672 146.439 46.336 144.775 47.872C143.111 49.408 141.447 50.624 139.783 51.52C138.183 52.416 136.615 52.864 135.079 52.864C133.479 52.864 132.359 52.48 131.719 51.712C131.079 50.88 130.759 49.632 130.759 47.968C130.759 46.368 131.271 44.448 132.295 42.208C133.319 39.904 134.791 37.664 136.711 35.488C138.631 33.248 140.935 31.392 143.623 29.92C146.375 28.448 149.447 27.712 152.839 27.712C154.503 27.712 155.655 28.032 156.295 28.672C156.935 29.248 157.223 29.952 157.159 30.784C157.095 31.616 156.903 32.448 156.583 33.28C156.263 34.112 155.975 34.752 155.719 35.2Z" fill="#020100"/>
<path d="M54.8157 71.26V81.01H59.7507V82H53.7357V71.26H54.8157ZM69.8102 76.63C69.8102 79.885 67.6952 82.18 64.6952 82.18C61.6802 82.18 59.5802 79.885 59.5802 76.63C59.5802 73.375 61.6952 71.065 64.6952 71.065C67.7102 71.065 69.8102 73.36 69.8102 76.63ZM68.7002 76.63C68.7002 73.945 67.0652 72.115 64.6952 72.115C62.3252 72.115 60.7052 73.945 60.7052 76.63C60.7052 79.315 62.3252 81.145 64.6952 81.145C67.0652 81.145 68.7002 79.3 68.7002 76.63ZM72.2485 82H71.1685V71.26H72.2635L78.1735 80.2V71.26H79.2385V82H78.1735L72.2485 73.06V82ZM84.5318 82H81.2618V71.26H84.5018C87.7418 71.26 89.9018 73.42 89.9018 76.63C89.9018 79.84 87.7568 82 84.5318 82ZM84.4568 72.25H82.3418V81.01H84.4868C87.1118 81.01 88.7918 79.3 88.7918 76.63C88.7918 73.945 87.1118 72.25 84.4568 72.25ZM100.823 76.63C100.823 79.885 98.7077 82.18 95.7077 82.18C92.6927 82.18 90.5927 79.885 90.5927 76.63C90.5927 73.375 92.7077 71.065 95.7077 71.065C98.7227 71.065 100.823 73.36 100.823 76.63ZM99.7127 76.63C99.7127 73.945 98.0777 72.115 95.7077 72.115C93.3377 72.115 91.7177 73.945 91.7177 76.63C91.7177 79.315 93.3377 81.145 95.7077 81.145C98.0777 81.145 99.7127 79.3 99.7127 76.63ZM103.261 82H102.181V71.26H103.276L109.186 80.2V71.26H110.251V82H109.186L103.261 73.06V82Z" fill="#020100"/>
<line x1="123" y1="76.5" x2="156" y2="76.5" stroke="#020100"/>
</svg>
